<svg id="Capa_1" data-name="Capa 1" xmlns="http://www.w3.org/2000/svg" viewBox="0 0 102.28 70.86"><defs><style>.cls-1{fill:#fff;}</style></defs><polygon class="cls-1" points="73.64 70.86 0 70.86 4.09 63.78 12.27 49.6 16.36 42.52 20.45 49.6 20.45 49.61 16.37 56.69 16.36 56.69 12.27 63.78 61.36 63.78 57.27 56.69 53.18 49.61 53.18 49.6 49.09 42.52 45 35.43 40.91 28.35 40.92 28.34 40.9 28.34 36.82 21.26 32.73 14.18 28.64 21.26 20.45 21.26 20.45 21.25 24.54 14.17 28.63 7.08 32.72 0 32.73 0 36.82 7.08 40.91 14.17 45 21.26 45.01 21.26 49.09 28.34 53.19 35.43 57.28 42.52 61.37 49.6 65.46 56.69 69.55 63.77 69.55 63.78 73.64 70.86"/><polygon class="cls-1" points="102.28 7.08 98.19 14.17 94.1 21.26 90.01 28.34 90 28.34 90 28.35 85.92 35.43 81.83 42.52 81.82 42.52 77.73 35.43 73.64 28.34 69.55 21.26 77.74 21.26 81.82 28.34 81.83 28.34 85.91 21.26 90.01 14.17 94.1 7.08 53.18 7.08 53.18 7.09 57.27 14.17 57.27 14.18 61.36 21.26 61.37 21.26 65.45 28.34 65.46 28.35 69.54 35.43 69.55 35.43 73.64 42.52 77.73 49.6 77.73 49.61 81.82 56.69 81.83 56.7 85.91 63.78 90 70.86 81.82 70.86 77.74 63.78 73.64 56.69 69.55 49.6 65.46 42.52 65.46 42.51 61.37 35.43 57.28 28.34 53.19 21.26 53.19 21.25 49.1 14.17 45.01 7.08 45 7.08 40.92 0 98.19 0 102.28 7.08"/></svg>